<?xml version="1.0" standalone="no"?>
<!DOCTYPE svg PUBLIC "-//W3C//DTD SVG 20010904//EN"
 "http://www.w3.org/TR/2001/REC-SVG-20010904/DTD/svg10.dtd">
<svg version="1.0" xmlns="http://www.w3.org/2000/svg"
 width="1436.000000pt" height="847.000000pt" viewBox="0 0 1436.000000 847.000000"
 preserveAspectRatio="xMidYMid meet">

<g transform="translate(0.000000,847.000000) scale(0.100000,-0.100000)"
fill="#000000" stroke="none">
<path d="M6281 8382 c-37 -97 -75 -255 -90 -377 -10 -74 -18 -303 -40 -1125
-9 -312 -9 -316 -41 -430 -20 -69 -33 -139 -33 -176 -1 -39 -5 -61 -11 -58
-32 11 -85 -97 -100 -201 -31 -217 -34 -258 -25 -282 l10 -26 27 30 c15 16 36
33 47 37 18 7 18 9 4 19 -13 10 -13 16 -2 37 7 14 13 37 13 53 0 20 5 27 20
27 15 0 20 -7 20 -26 0 -24 3 -26 29 -21 15 3 33 1 40 -6 16 -16 14 -58 -5
-71 -11 -8 -16 -33 -19 -81 -5 -109 -57 -208 -133 -251 -58 -33 -159 -48 -171
-26 -7 12 -10 11 -16 -7 -5 -16 -1 -29 14 -45 34 -36 27 -69 -19 -95 -23 -13
-40 -30 -40 -40 0 -23 -19 -41 -36 -34 -8 3 -30 -7 -50 -22 -31 -24 -35 -32
-31 -59 5 -36 0 -56 -15 -56 -6 0 -44 -33 -85 -74 -111 -112 -150 -222 -88
-246 13 -5 26 -14 30 -19 3 -6 15 -11 27 -11 11 0 22 -8 25 -19 8 -32 29 -32
57 0 15 16 36 29 50 29 13 0 35 12 49 26 20 20 37 26 74 27 42 2 48 -1 51 -19
2 -14 -6 -27 -25 -39 -15 -10 -31 -24 -35 -31 -10 -16 -137 -80 -177 -89 -31
-7 -40 -19 -21 -30 15 -9 12 -25 -5 -25 -8 0 -15 -4 -15 -10 0 -5 -16 -10 -35
-10 -24 0 -35 -5 -35 -14 0 -23 88 -14 105 11 9 13 36 24 84 33 63 12 73 11
95 -4 28 -18 34 -47 14 -63 -7 -6 -31 -16 -53 -23 -51 -15 -103 -38 -109 -48
-5 -8 -72 -31 -151 -51 -31 -8 -47 -21 -72 -58 -38 -55 -40 -69 -16 -95 11
-12 13 -22 7 -26 -15 -10 -25 -42 -13 -42 6 0 8 -9 4 -20 -8 -24 20 -29 29 -5
3 8 10 15 17 15 21 0 69 42 69 61 0 10 6 19 13 20 23 1 72 8 144 20 58 10 75
10 87 0 23 -19 20 -36 -9 -51 -14 -7 -25 -20 -25 -28 0 -9 -3 -13 -6 -9 -8 8
-34 -18 -34 -33 0 -6 -11 -16 -25 -22 -16 -7 -24 -17 -20 -26 3 -7 8 -25 11
-38 7 -29 12 -29 41 -5 15 12 23 32 25 62 2 34 7 44 20 44 10 0 23 6 30 13 6
6 20 12 30 12 10 0 27 5 38 12 17 11 23 8 48 -15 l29 -28 45 30 c25 17 51 38
59 47 20 25 59 36 75 23 13 -10 45 -8 112 8 14 3 22 1 22 -8 0 -8 -33 -29 -73
-47 -39 -18 -85 -44 -102 -57 -16 -14 -55 -44 -85 -68 -31 -24 -56 -53 -58
-65 -4 -23 7 -29 24 -12 14 14 112 21 119 9 9 -14 27 -11 19 4 -5 9 -4 9 6 0
11 -10 20 -5 46 25 17 21 57 50 88 66 68 35 125 32 206 -9 l52 -27 29 28 c16
15 29 35 29 44 0 8 6 24 13 35 24 35 28 67 10 81 -20 14 -25 155 -14 389 l6
139 43 9 c24 5 46 6 49 3 3 -3 7 -49 9 -103 2 -54 9 -137 15 -185 8 -62 8 -97
0 -120 -8 -25 -12 -98 -5 -98 0 0 25 13 54 29 34 19 55 37 57 50 2 12 -3 21
-10 21 -30 0 -41 46 -30 121 11 70 22 95 30 72 3 -7 11 -13 19 -13 8 0 17 -7
20 -15 4 -8 10 -13 14 -10 12 7 31 -85 26 -125 -3 -19 -5 -39 -5 -44 -1 -4 -8
-6 -16 -2 -9 3 -15 0 -15 -9 0 -23 61 -9 89 21 22 23 25 35 23 73 -2 26 4 76
13 111 22 85 59 126 125 135 50 7 110 37 110 56 0 7 -10 9 -25 7 l-25 -5 0
272 0 272 53 6 c28 2 54 3 57 2 3 -2 4 -125 2 -273 l-3 -271 -27 -5 c-15 -2 2
-3 38 -2 70 3 127 -8 148 -28 11 -11 10 -20 -6 -50 -15 -28 -19 -48 -14 -79 3
-23 5 -58 4 -76 0 -24 5 -39 18 -48 13 -9 21 -32 26 -81 4 -37 6 -71 5 -77 -7
-22 -4 -67 6 -73 6 -4 13 -24 17 -44 4 -21 12 -38 18 -38 6 0 8 -10 4 -24 -4
-18 -1 -29 14 -39 20 -14 18 -18 -64 -102 -74 -76 -86 -93 -88 -126 -1 -21 -8
-41 -15 -43 -16 -6 -18 -118 -3 -145 5 -10 12 -40 14 -67 3 -27 12 -70 20 -95
8 -26 17 -71 21 -102 8 -61 27 -101 37 -75 3 7 -5 47 -18 88 -26 83 -28 110
-11 158 20 55 63 92 106 92 35 0 37 -2 34 -27 -5 -44 19 -65 79 -70 29 -2 63
-8 75 -15 19 -9 25 -8 42 13 l19 24 21 -36 c18 -31 26 -36 52 -34 17 1 35 8
39 15 4 7 12 10 18 7 5 -4 17 2 27 13 23 26 79 43 114 35 34 -7 107 19 137 49
11 12 26 40 34 64 8 25 19 42 29 43 9 0 -4 8 -29 17 -85 32 -155 129 -208 287
-11 33 -23 76 -27 95 -4 19 -16 54 -26 77 -11 24 -24 54 -29 68 -12 32 -29 32
-22 0 8 -44 -28 -29 -96 38 -34 34 -82 89 -106 122 -29 40 -60 69 -94 88 l-51
28 14 -40 c16 -45 16 -123 1 -118 -8 3 -53 182 -55 221 -1 5 12 6 28 3 48 -10
101 12 152 61 l48 47 6 375 c6 479 4 452 41 456 16 2 38 5 50 8 20 5 21 2 27
-176 4 -100 7 -279 7 -399 l0 -217 35 -4 c28 -3 35 0 35 13 0 17 42 29 103 29
24 0 27 -4 27 -33 0 -29 3 -33 30 -35 16 -1 42 -7 57 -13 15 -6 53 -17 83 -25
30 -8 65 -22 78 -30 25 -16 31 -57 7 -48 -21 9 -19 -23 2 -35 16 -8 16 -14 6
-42 -22 -58 24 -169 70 -169 5 0 6 15 2 33 -16 75 -10 146 9 105 3 -7 4 1 1
17 -5 29 -4 29 19 -10 14 -22 29 -47 35 -55 7 -11 10 8 11 65 1 44 3 87 5 95
6 33 48 110 56 104 5 -3 9 4 9 14 0 22 17 31 63 33 20 1 25 3 13 6 -14 4 -3
12 40 32 32 14 60 33 62 41 5 23 22 36 24 20 1 -8 5 53 8 135 l5 150 66 3 66
3 7 -215 c4 -118 6 -219 3 -223 -2 -4 -8 -75 -12 -158 -4 -96 -11 -153 -18
-157 -7 -4 -26 -8 -44 -8 -17 0 -35 -4 -38 -10 -3 -5 0 -10 7 -10 13 0 13 -18
5 -160 -1 -25 -8 -55 -15 -68 -7 -12 -12 -44 -10 -70 3 -43 5 -47 30 -50 23
-3 26 0 23 19 -2 12 -6 24 -9 26 -13 14 21 30 46 22 18 -5 28 -4 28 3 0 6 6 6
15 -2 8 -7 15 -8 15 -3 0 12 48 4 56 -9 4 -5 1 -15 -5 -21 -14 -14 -51 -17
-51 -4 0 5 -7 4 -15 -3 -12 -10 -15 -10 -15 1 0 11 -2 11 -9 -1 -6 -8 -7 -18
-4 -24 3 -5 1 -6 -6 -2 -6 4 -8 12 -5 18 5 8 1 9 -10 5 -10 -4 -20 -7 -22 -7
-3 0 -2 -5 2 -11 3 -6 0 -16 -7 -21 -10 -7 -4 -8 18 -5 20 2 34 -1 37 -9 5
-13 30 -13 42 -1 12 12 44 8 44 -5 0 -9 2 -10 8 -2 10 16 51 12 62 -6 8 -12
10 -12 16 3 3 9 12 17 19 17 18 0 55 48 55 70 0 10 6 20 13 23 14 5 83 107
267 392 99 154 135 209 232 360 72 111 78 126 71 183 -7 65 1 95 36 131 58 59
138 47 185 -28 24 -37 25 -38 118 -50 51 -7 127 -17 168 -22 41 -4 134 -17
205 -27 l130 -20 32 31 c27 26 43 31 93 35 l59 4 89 97 c292 319 282 306 275
344 -12 77 42 154 115 164 53 7 84 -1 122 -33 28 -25 35 -26 96 -19 35 4 69
12 74 18 5 7 22 27 37 46 36 45 80 62 136 55 54 -8 57 -6 149 81 322 306 423
403 563 541 233 231 235 234 235 295 0 27 7 63 15 80 43 82 172 93 211 18 48
-93 -24 -189 -141 -189 -46 0 -50 -2 -137 -87 -168 -164 -464 -469 -614 -633
-38 -41 -90 -96 -116 -123 -37 -37 -48 -57 -48 -81 0 -85 -49 -156 -120 -174
-43 -11 -92 2 -135 36 -22 18 -41 22 -96 22 l-69 0 -24 -38 c-40 -64 -111 -95
-168 -73 -26 10 -33 4 -155 -126 -70 -74 -152 -161 -181 -192 -76 -79 -73 -74
-62 -111 23 -81 -42 -170 -125 -170 -53 0 -100 35 -110 81 -9 38 -26 45 -150
59 -55 6 -138 17 -185 25 -119 19 -241 35 -266 35 -12 0 -24 -8 -27 -17 -15
-48 -71 -119 -109 -139 -34 -18 -43 -18 -62 1 -17 17 -25 8 -121 -145 -103
-163 -160 -253 -183 -287 -40 -62 -188 -297 -199 -318 -11 -19 -8 -20 93 -20
57 0 104 -4 104 -9 0 -5 6 -3 13 3 17 13 27 5 27 -23 0 -28 35 -49 88 -52 82
-6 193 -111 184 -175 -4 -29 -5 -29 -51 -23 -42 5 -48 3 -75 -25 -16 -17 -33
-28 -38 -25 -4 3 -8 -3 -9 -13 0 -16 -1 -16 -9 2 -5 11 -9 14 -9 7 -1 -8 -8
-28 -16 -46 -16 -33 -46 -50 -107 -60 -45 -8 -52 -17 -43 -56 7 -32 47 -60 85
-60 11 0 20 -4 20 -9 0 -5 15 -18 33 -29 30 -19 57 -24 117 -23 14 0 44 -4 68
-10 37 -10 42 -15 42 -40 0 -16 -3 -29 -7 -29 -5 0 -48 -7 -97 -15 -49 -8
-115 -15 -145 -16 -31 -1 -68 -8 -83 -16 -15 -7 -39 -11 -52 -7 -24 6 -171
-22 -191 -36 -5 -3 -26 -13 -45 -20 -36 -14 -85 -47 -128 -87 -14 -13 -29 -23
-33 -23 -5 0 -9 -11 -9 -24 0 -26 -21 -39 -46 -29 -9 3 -20 0 -25 -8 -4 -8
-12 -14 -16 -14 -24 -2 -54 -19 -63 -36 -6 -10 -20 -19 -31 -19 -24 0 -49 -22
-49 -44 0 -21 -17 -29 -39 -16 -11 5 -22 6 -25 1 -3 -4 -20 -11 -37 -15 -18
-3 -39 -12 -47 -19 -8 -6 -29 -13 -46 -13 -17 -1 -59 -5 -93 -8 -35 -4 -63 -2
-63 3 0 13 -72 22 -86 10 -7 -6 -23 -9 -36 -7 -17 2 -22 8 -20 26 2 12 -6 36
-18 53 -12 16 -20 38 -17 47 3 9 10 32 16 50 6 19 6 30 0 27 -5 -4 -9 9 -9 28
0 73 -10 97 -52 117 -22 10 -46 16 -54 13 -8 -3 -14 -1 -14 5 0 18 -31 22 -53
7 -12 -8 -41 -15 -64 -15 l-42 0 -138 -172 c-134 -166 -206 -255 -287 -352
-37 -44 -38 -47 -22 -65 26 -28 17 -63 -19 -74 -58 -18 -81 -57 -34 -57 25 0
24 -17 -2 -25 -54 -18 -139 34 -139 85 0 14 -18 25 -72 43 -72 25 -72 25 -24
20 38 -5 47 -3 41 7 -6 9 1 11 32 6 35 -6 41 -4 52 17 21 39 84 60 107 37 10
-10 58 49 346 424 78 100 108 144 108 156 0 6 -4 9 -9 6 -4 -3 -6 7 -3 22 4
26 4 26 -12 7 -11 -14 -15 -16 -16 -6 0 8 -3 11 -6 8 -4 -3 -15 -2 -26 4 -15
8 -23 7 -34 -8 -7 -10 -14 -25 -14 -33 0 -21 -58 -80 -78 -80 -12 0 -13 3 -5
11 9 9 8 15 0 24 -14 15 -37 -4 -37 -32 0 -14 -2 -15 -9 -4 -13 20 -41 6 -42
-21 0 -13 -3 -17 -6 -10 -2 6 -11 12 -19 12 -17 0 -19 -30 -1 -30 10 -1 -2 -9
-70 -45 -6 -4 -35 4 -64 16 -49 21 -54 27 -84 93 -18 39 -39 88 -46 108 -9 26
-16 34 -22 25 -5 -8 -6 -4 -2 9 3 13 -11 60 -38 126 -24 57 -54 138 -66 179
-13 40 -40 121 -61 179 -20 58 -45 128 -54 157 -20 61 -31 72 -71 71 -17 0
-34 1 -40 3 -15 5 -72 -28 -79 -46 -3 -9 -6 -25 -6 -36 0 -12 -9 -21 -27 -25
-16 -4 -35 -12 -43 -19 -8 -7 -34 -19 -57 -26 -35 -10 -44 -18 -54 -47 -10
-31 -9 -37 7 -49 16 -12 17 -15 4 -24 -11 -8 -12 -12 -2 -16 6 -2 12 -16 12
-29 0 -25 11 -26 68 -8 15 4 16 -8 1 -23 -8 -8 -8 -13 0 -17 6 -4 11 -2 11 4
0 6 5 8 11 4 8 -4 8 -9 0 -17 -17 -17 -13 -24 19 -37 17 -7 30 -16 30 -21 0
-5 12 -9 26 -9 25 0 26 -2 20 -32 -14 -63 -14 -83 -4 -120 6 -21 19 -45 30
-54 10 -10 18 -27 19 -38 1 -18 2 -18 9 4 7 23 8 24 15 5 4 -11 13 -33 21 -50
17 -37 24 -173 9 -179 -5 -2 2 -16 17 -30 15 -15 44 -52 64 -84 20 -31 44 -62
53 -69 9 -6 13 -14 10 -17 -6 -7 -121 113 -185 192 -23 28 -64 93 -93 144 -28
51 -83 134 -121 183 -109 142 -156 216 -174 273 -10 28 -21 52 -24 51 -4 0
-17 -13 -30 -29 l-22 -29 34 -37 c31 -33 56 -92 35 -78 -12 7 -11 -10 1 -22 5
-5 17 -38 26 -73 17 -67 10 -87 -24 -73 -12 4 -14 -1 -9 -29 3 -19 3 -28 0
-21 -9 22 -22 13 -48 -32 -14 -24 -32 -47 -40 -50 -8 -3 -15 -12 -15 -20 0 -7
-11 -21 -25 -30 -27 -18 -25 -32 11 -81 12 -16 26 -42 29 -58 4 -15 11 -30 16
-33 5 -3 9 -13 9 -22 0 -9 11 -28 25 -42 27 -28 95 -137 95 -151 0 -5 5 -9 10
-9 6 0 10 -11 10 -25 0 -22 -2 -24 -27 -14 -14 5 -45 26 -67 45 -59 51 -63 53
-70 47 -3 -4 -6 1 -6 10 0 16 -59 91 -67 84 -7 -8 18 -60 42 -89 14 -16 25
-37 25 -46 0 -19 101 -72 138 -72 38 0 438 -117 430 -126 -2 -2 -21 1 -41 7
-21 5 -79 14 -130 18 -74 6 -108 15 -173 44 -91 41 -99 43 -90 22 3 -10 -3
-17 -19 -21 -14 -3 -22 -11 -19 -16 4 -6 -4 -3 -17 5 -41 26 -95 29 -175 12
-68 -16 -76 -16 -99 -1 -27 18 -41 68 -32 122 5 28 -1 47 -29 94 -32 55 -64
130 -64 151 0 31 91 -50 135 -119 21 -36 31 -43 48 -38 12 3 25 6 30 6 13 0 7
43 -9 61 -9 10 -20 37 -25 61 -6 23 -15 46 -22 50 -9 6 -9 12 1 28 20 32 14
66 -22 139 -46 90 -140 183 -190 186 -25 1 -45 12 -74 42 -22 22 -43 50 -47
62 -6 21 -4 22 17 16 12 -4 25 -12 26 -16 2 -5 8 -9 13 -9 5 0 18 -9 29 -20
42 -42 50 -28 50 79 0 55 3 108 6 118 5 16 4 16 -10 -1 -9 -11 -16 -14 -16 -8
0 19 -72 -21 -119 -66 -30 -28 -49 -38 -73 -38 -62 0 -69 -8 -54 -52 8 -22 32
-63 54 -91 75 -100 77 -180 2 -103 -22 23 -42 42 -45 42 -3 0 -5 -17 -5 -37 0
-73 -23 -198 -42 -222 -10 -13 -18 -30 -18 -37 0 -8 -11 -23 -23 -34 -15 -13
-24 -33 -25 -53 -1 -18 -7 -51 -14 -73 -12 -37 -16 -40 -65 -48 -63 -11 -61
-5 -47 -156 3 -30 1 -66 -4 -79 l-9 -25 -17 26 c-21 33 -65 156 -66 183 0 36
-81 185 -100 185 -23 0 -27 -11 -29 -90 -2 -79 9 -120 34 -134 34 -19 79 -70
100 -111 21 -44 66 -103 72 -95 2 3 17 -18 33 -47 16 -28 52 -71 80 -95 57
-48 127 -146 184 -258 22 -41 43 -81 49 -88 5 -7 8 -14 6 -16 -2 -3 -256 -9
-564 -14 -430 -7 -87 -9 1475 -6 1119 2 2454 6 2965 9 901 5 1154 0 1178 -24
15 -15 48 -13 71 4 26 20 106 19 134 -1 19 -13 49 -15 205 -10 182 6 419 -8
425 -25 2 -5 187 -9 411 -9 278 0 418 -3 440 -11 l33 -12 -27 -17 c-19 -12
-59 -19 -148 -25 -67 -4 -138 -9 -157 -10 -19 -2 -123 -6 -230 -10 -107 -3
-222 -10 -255 -15 -175 -27 -286 -31 -1000 -35 -3814 -21 -3604 -20 -4106 -30
l-377 -7 -11 -25 c-13 -28 -15 -103 -3 -103 18 0 54 -39 46 -51 -5 -9 -2 -10
10 -6 13 5 17 3 13 -6 -4 -10 5 -12 42 -6 25 4 57 11 71 15 22 6 23 5 12 -8
-10 -13 -10 -17 2 -21 8 -3 24 -3 36 0 15 4 26 0 32 -11 5 -9 18 -16 28 -16
11 0 20 -4 20 -10 0 -5 7 -10 15 -10 13 0 19 -11 17 -31 -1 -4 8 -4 20 -1 17
4 20 2 15 -11 -3 -9 -1 -19 5 -23 7 -4 6 -9 -3 -15 -9 -6 5 -9 39 -9 39 0 52
-4 52 -15 0 -8 9 -15 20 -15 11 0 20 -4 20 -8 0 -13 74 -47 155 -72 39 -13 73
-26 78 -29 4 -4 -9 -46 -28 -93 -95 -237 -174 -605 -190 -888 -8 -153 -31
-359 -50 -445 -8 -38 -15 -82 -15 -97 l0 -28 3785 0 3785 0 0 4235 0 4235
-4022 0 -4023 0 -34 -88z m2019 -1612 c0 -5 -5 -10 -11 -10 -5 0 -7 5 -4 10 3
6 8 10 11 10 2 0 4 -4 4 -10z m-60 -60 c0 -5 -5 -10 -11 -10 -5 0 -7 5 -4 10
3 6 8 10 11 10 2 0 4 -4 4 -10z m-460 -81 c0 -5 -4 -9 -10 -9 -5 0 -10 7 -10
16 0 8 5 12 10 9 6 -3 10 -10 10 -16z m410 11 c0 -5 -4 -10 -10 -10 -5 0 -10
5 -10 10 0 6 5 10 10 10 6 0 10 -4 10 -10z m-490 -15 c0 -8 -4 -15 -10 -15 -5
0 -10 7 -10 15 0 8 5 15 10 15 6 0 10 -7 10 -15z m150 -16 c0 -11 -4 -17 -10
-14 -5 3 -10 13 -10 21 0 8 5 14 10 14 6 0 10 -9 10 -21z m-212 -31 c-6 -18
-28 -21 -28 -4 0 9 7 16 16 16 9 0 14 -5 12 -12z m282 -8 c0 -5 -4 -10 -10
-10 -5 0 -10 5 -10 10 0 6 5 10 10 10 6 0 10 -4 10 -10z m210 0 c0 -5 -4 -10
-10 -10 -5 0 -10 5 -10 10 0 6 5 10 10 10 6 0 10 -4 10 -10z m-140 -35 c0 -8
-7 -15 -15 -15 -16 0 -20 12 -8 23 11 12 23 8 23 -8z m72 -10 c0 -5 -5 -11
-11 -13 -6 -2 -11 4 -11 13 0 9 5 15 11 13 6 -2 11 -8 11 -13z m-496 -31 c-9
-8 -16 -24 -16 -33 0 -29 -22 -42 -44 -26 -15 11 -16 19 -9 42 8 22 15 27 35
25 17 -2 28 3 33 15 5 12 9 14 12 6 3 -7 -3 -20 -11 -29z m-116 -29 c0 -32 -2
-35 -30 -35 -26 0 -30 3 -30 29 0 28 10 36 48 40 7 1 12 -12 12 -34z m198 6
c10 -6 11 -13 1 -35 -10 -20 -17 -25 -33 -20 -28 9 -28 8 -20 38 6 26 27 33
52 17z m-294 -38 c9 -28 -27 -51 -50 -32 -20 17 -17 34 9 52 24 17 31 13 41
-20z m390 -21 c2 -4 -4 -19 -14 -32 -18 -24 -20 -24 -36 -8 -15 14 -16 22 -6
43 10 22 15 24 31 15 11 -5 22 -14 25 -18z m-634 4 c0 -3 -4 -8 -10 -11 -5 -3
-10 -1 -10 4 0 6 5 11 10 11 6 0 10 -2 10 -4z m158 -47 c11 -18 11 -24 -4 -40
-18 -19 -18 -19 -38 0 -19 20 -19 21 -1 41 23 25 27 25 43 -1z m220 0 c-2 -6
-8 -10 -13 -10 -5 0 -11 4 -13 10 -2 6 4 11 13 11 9 0 15 -5 13 -11z m322 -58
c-13 -25 -38 -24 -54 1 -8 13 -6 22 9 38 18 20 19 20 38 2 16 -16 17 -23 7
-41z m-660 39 c0 -5 -4 -10 -10 -10 -5 0 -10 5 -10 10 0 6 5 10 10 10 6 0 10
-4 10 -10z m290 -55 c0 -8 -4 -15 -9 -15 -13 0 -22 16 -14 24 11 11 23 6 23
-9z m-230 -35 c0 -3 -6 -15 -14 -25 -12 -16 -16 -17 -30 -6 -20 17 -20 30 1
53 16 18 18 18 30 2 7 -10 13 -21 13 -24z m671 -2 c10 -18 8 -24 -12 -39 -23
-18 -24 -18 -41 4 -15 20 -15 23 -1 39 21 24 40 23 54 -4z m-376 -17 c-14 -6
-22 -21 -26 -52 l-6 -44 -1 53 c-2 51 -1 52 26 51 23 0 24 -1 7 -8z m-255 -11
c0 -5 -5 -10 -11 -10 -5 0 -7 5 -4 10 3 6 8 10 11 10 2 0 4 -4 4 -10z m140 2
c0 -13 -12 -22 -22 -16 -10 6 -1 24 13 24 5 0 9 -4 9 -8z m-1280 -37 c0 -8 -4
-15 -9 -15 -13 0 -22 16 -14 24 11 11 23 6 23 -9z m1210 0 c0 -8 -4 -15 -10
-15 -5 0 -10 7 -10 15 0 8 5 15 10 15 6 0 10 -7 10 -15z m-172 -25 c1 -9 -3
-23 -10 -33 -19 -25 -50 -2 -42 31 7 26 47 28 52 2z m789 -3 c9 -18 6 -25 -13
-40 -24 -18 -24 -17 -35 7 -9 20 -9 29 1 41 18 21 35 19 47 -8z m1163 -37 c0
-5 -7 -10 -15 -10 -8 0 -15 5 -15 10 0 6 7 10 15 10 8 0 15 -4 15 -10z m-2000
-65 c0 -6 -6 -19 -12 -28 -11 -14 -15 -14 -32 -2 -16 12 -18 18 -8 40 10 22
14 24 32 13 11 -7 20 -18 20 -23z m889 9 c10 -22 9 -28 -6 -40 -24 -18 -31
-17 -43 7 -9 16 -8 25 6 40 23 25 28 24 43 -7z m-429 -44 c4 25 7 -29 7 -120
-1 -131 -2 -147 -7 -80 l-6 85 -3 -85 c-2 -56 -5 -75 -10 -55 -3 17 -4 91 -1
165 2 74 6 115 9 90 l5 -45 6 45z m1477 14 c1 -5 -1 -15 -6 -23 -8 -12 -12
-13 -25 -2 -13 11 -14 17 -5 28 13 14 31 13 36 -3z m-1998 -63 c12 -8 13 -14
3 -36 -10 -22 -15 -24 -32 -15 -21 11 -24 19 -14 44 7 18 22 20 43 7z m458
-113 c-2 -24 -4 -5 -4 42 0 47 2 66 4 43 2 -24 2 -62 0 -85z m543 103 c8 -16
6 -23 -12 -35 -30 -21 -35 -20 -42 11 -11 41 34 61 54 24z m930 -51 c-11 -21
-12 -21 -31 -4 -18 16 -18 18 -2 36 14 16 19 17 31 4 11 -11 12 -18 2 -36z
m-2743 -16 c8 -21 -13 -42 -28 -27 -13 13 -5 43 11 43 6 0 13 -7 17 -16z m93
1 c0 -8 -7 -15 -15 -15 -8 0 -15 7 -15 15 0 8 7 15 15 15 8 0 15 -7 15 -15z
m1051 -112 c0 -71 2 -140 3 -155 1 -16 -2 -28 -6 -28 -9 0 -11 14 -9 45 2 17
0 18 -9 5 -7 -11 -8 -6 -3 20 4 19 7 81 8 137 0 57 3 103 8 103 4 0 7 -57 8
-127z m2240 87 l6 -35 3 35 c3 34 3 34 7 5 2 -16 6 -41 10 -55 6 -22 7 -21 13
15 10 68 22 -129 18 -319 l-3 -169 -25 -4 c-13 -2 -28 -9 -32 -16 -6 -9 -8 -9
-8 1 0 6 -12 12 -26 12 l-27 0 5 260 c3 144 8 264 12 268 4 3 11 0 16 -8 7
-12 10 -9 10 12 0 14 -6 29 -12 32 -7 3 -4 5 7 3 14 -2 22 -12 26 -37z m-2084
-7 c-3 -10 -5 -4 -5 12 0 17 2 24 5 18 2 -7 2 -21 0 -30z m-527 -11 c0 -5 -6
-16 -13 -25 -10 -15 -15 -16 -31 -4 -15 11 -17 17 -7 35 10 18 15 20 31 12 11
-6 20 -14 20 -18z m1084 6 c6 -23 -15 -48 -40 -48 -18 0 -28 51 -12 61 23 15
46 9 52 -13z m836 -26 c0 -5 -6 -17 -14 -27 -12 -16 -15 -17 -34 -3 -20 13
-20 16 -6 36 12 18 19 20 35 12 10 -6 19 -14 19 -18z m-2520 3 c0 -8 -6 -15
-14 -15 -17 0 -28 14 -19 24 12 12 33 6 33 -9z m1725 -75 c7 -22 -10 -50 -30
-50 -6 0 -17 10 -22 23 -9 19 -8 26 6 35 25 17 39 14 46 -8z m-1665 -4 c0 -21
-21 -31 -30 -15 -5 7 -6 17 -4 21 9 14 34 9 34 -6z m482 -16 c-3 -32 -7 -34
-31 -20 -18 9 -19 14 -10 31 14 28 45 20 41 -11z m1898 10 c17 -9 18 -14 8
-35 -13 -29 -17 -30 -42 -12 -16 12 -17 16 -5 35 16 25 15 25 39 12z m-1333
-16 c-3 -3 -12 -4 -19 -1 -8 3 -5 6 6 6 11 1 17 -2 13 -5z m70 -292 l-2 -277
-22 1 c-22 1 -23 -2 -23 -77 0 -43 -4 -81 -10 -84 -6 -4 -10 23 -10 74 0 80 0
81 -25 81 l-25 0 0 278 0 278 47 3 c26 1 49 4 52 6 16 17 20 -39 18 -283z
m1653 251 c9 -8 12 -545 3 -554 -4 -4 -34 -11 -66 -15 l-57 -7 2 289 3 288 25
7 c24 7 79 2 90 -8z m-2720 -27 c0 -21 -21 -31 -30 -15 -5 7 -6 17 -4 21 9 14
34 9 34 -6z m1664 -8 c4 -16 0 -28 -16 -41 -21 -18 -22 -18 -36 9 -13 25 -13
29 4 41 26 19 41 16 48 -9z m-1279 2 c7 -12 -3 -50 -13 -50 -20 1 -34 19 -27
39 7 22 29 28 40 11z m1889 -23 c8 -13 6 -21 -7 -34 -16 -16 -18 -16 -33 -1
-13 13 -14 20 -4 37 13 24 28 24 44 -2z m-1435 -42 c0 -5 -6 1 -14 15 -8 14
-14 30 -14 35 0 6 6 -1 14 -15 8 -14 14 -29 14 -35z m-19 -40 c0 -41 2 -45 25
-45 25 0 25 0 25 -94 0 -106 -5 -113 -75 -100 l-35 6 0 89 c0 82 2 89 20 89
17 0 20 7 20 50 0 28 5 50 10 50 6 0 10 -20 10 -45z m-775 14 c0 -7 -8 -15
-17 -17 -18 -3 -25 18 -11 32 10 10 28 1 28 -15z m1673 -28 c-5 -22 -35 -38
-49 -24 -17 17 -20 63 -4 57 7 -3 16 0 21 7 9 15 36 -18 32 -40z m-1389 20
c13 -8 7 -51 -7 -51 -20 1 -34 19 -27 39 7 23 13 25 34 12z m1880 -15 c9 -11
9 -19 -1 -35 -15 -25 -31 -27 -47 -7 -9 11 -10 20 -1 35 13 24 33 27 49 7z
m-2119 -71 c0 -19 -20 -29 -32 -17 -8 8 -7 16 2 26 14 17 30 12 30 -9z m1683
-3 c16 -17 15 -20 -7 -41 l-23 -22 -16 24 c-14 22 -14 26 1 41 21 20 25 20 45
-2z m-1496 -13 c16 -16 5 -39 -18 -39 -12 0 -19 7 -19 18 0 31 17 41 37 21z
m1855 -6 c18 -16 18 -17 -3 -39 l-22 -23 -17 22 c-17 20 -17 24 -3 40 20 21
22 21 45 0z m378 -208 l0 -195 -55 0 c-37 0 -55 -4 -55 -12 0 -8 -5 -6 -11 4
-5 10 -8 92 -7 200 l3 183 30 6 c17 4 45 7 63 8 l32 1 0 -195z m-662 116 c-15
-24 -36 -24 -52 1 -8 13 -6 22 9 38 18 20 19 20 38 2 16 -17 17 -22 5 -41z
m-1718 20 c0 -11 -5 -23 -11 -27 -15 -9 -33 12 -26 30 9 23 37 20 37 -3z
m1916 2 c20 -26 17 -38 -11 -51 -34 -15 -32 -16 -40 15 -5 20 -2 31 11 40 23
17 24 16 40 -4z m-1831 -13 c7 -11 -12 -40 -25 -40 -11 0 -21 30 -14 41 7 12
31 11 39 -1z m1733 -38 c3 -32 2 -33 -30 -30 -27 2 -32 7 -30 23 6 38 12 46
34 43 18 -2 24 -11 26 -36z m-278 -127 l0 -145 -25 0 c-24 0 -25 -2 -25 -70 0
-40 -4 -70 -10 -70 -6 0 -10 30 -10 70 0 68 -1 70 -25 70 l-25 0 0 139 c0 156
-4 148 78 150 l42 1 0 -145z m-1966 19 c14 -5 16 -38 16 -265 l0 -259 -44 0
-43 0 -6 115 c-9 182 2 387 21 403 18 13 32 15 56 6z m762 -122 c17 -11 13
-414 -4 -420 -7 -2 -27 -16 -44 -30 -29 -24 -30 -25 -19 -4 6 12 16 22 21 22
20 0 9 18 -15 24 -33 8 -38 35 -31 164 3 59 6 137 5 174 0 62 1 67 23 71 38 7
52 7 64 -1z m1360 -97 c-4 -63 -4 -64 23 -67 l26 -3 1 -127 1 -128 -64 0 -64
0 3 128 3 127 28 3 c27 3 27 4 27 73 0 44 4 68 10 64 6 -4 8 -34 6 -70z m580
-125 c4 -41 9 -69 11 -62 8 21 22 13 25 -15 l4 -28 11 25 c11 24 12 23 12 -15
2 -86 -12 -175 -25 -175 -8 0 -14 -11 -14 -25 0 -26 -15 -34 -23 -12 -3 7 -6
4 -6 -6 -1 -10 -6 -15 -11 -12 -7 4 -9 59 -6 153 2 81 6 185 7 232 2 85 3 81
15 -60z m-2498 -20 c4 -137 1 -147 -43 -152 -19 -2 -40 -1 -45 2 -5 3 -10 59
-11 124 -3 131 0 138 61 134 l35 -3 3 -105z m2583 -172 l-11 -33 5 34 c3 18 6
57 7 85 l2 51 3 -52 c2 -28 -1 -66 -6 -85z m-2091 -8 c0 -5 -2 -10 -4 -10 -3
0 -8 5 -11 10 -3 6 -1 10 4 10 6 0 11 -4 11 -10z m-864 -66 c9 -51 -8 -84 -45
-84 -20 0 -34 7 -41 21 -16 29 -3 79 23 89 43 17 56 12 63 -26z m6132 12 c95
-49 166 -143 197 -263 19 -71 20 -202 3 -208 -7 -3 -53 6 -103 18 l-90 23 -6
45 c-10 67 -33 113 -73 145 -38 31 -43 51 -27 114 5 19 15 61 21 93 6 31 16
57 21 57 5 0 31 -11 57 -24z m-1008 -136 l0 -110 -39 -20 c-48 -24 -85 -70
-101 -126 l-12 -41 -86 -7 c-50 -4 -90 -2 -95 3 -15 15 18 145 53 210 56 105
177 201 252 201 l28 0 0 -110z m151 80 c196 -101 259 -389 135 -620 l-19 -34
-67 74 -68 74 14 39 c18 52 18 129 -1 174 -19 44 -68 93 -94 93 -18 0 -20 9
-23 111 -2 61 -1 113 2 116 9 9 81 -7 121 -27z m-5277 -88 c9 -14 -31 -117
-45 -117 -22 0 -31 96 -11 113 18 14 48 16 56 4z m5603 -284 c-3 -8 -6 -5 -6
6 -1 11 2 17 5 13 3 -3 4 -12 1 -19z m-617 -91 l18 -46 -65 -76 c-36 -41 -69
-75 -73 -75 -18 0 -70 150 -70 201 l0 38 73 3 c39 2 78 3 86 2 7 0 21 -21 31
-47z m1310 9 c41 -13 41 -24 3 -103 -35 -75 -111 -154 -185 -193 -53 -28 -76
-34 -143 -38 -113 -6 -179 20 -262 104 -35 34 -63 68 -63 76 0 13 109 101 156
126 18 9 25 8 40 -10 67 -75 189 -58 253 36 l31 44 67 -15 c38 -9 84 -21 103
-27z m-3420 -16 c0 -10 -4 -21 -8 -24 -5 -3 -9 8 -9 24 0 16 4 27 9 24 4 -3 8
-14 8 -24z m60 -1 c0 -21 -15 -26 -26 -8 -4 8 -9 7 -15 -2 -6 -10 -9 -8 -9 9
0 13 4 21 9 17 5 -3 12 -1 16 5 9 15 25 2 25 -21z m50 0 c0 -10 -7 -19 -15
-19 -15 0 -21 31 -9 43 11 10 24 -3 24 -24z m-2302 -99 c-14 -21 -38 -35 -38
-20 0 11 29 40 41 40 5 0 4 -9 -3 -20z m-48 -54 c0 -3 -4 -8 -10 -11 -5 -3
-10 -1 -10 4 0 6 5 11 10 11 6 0 10 -2 10 -4z m3017 -88 c-3 -8 -6 -5 -6 6 -1
11 2 17 5 13 3 -3 4 -12 1 -19z m1059 -54 c19 -5 21 -12 18 -67 -1 -34 -3 -64
-3 -67 -1 -3 -47 -7 -103 -8 -56 -2 -104 -5 -107 -7 -4 -2 -6 -309 -6 -683 0
-374 -3 -678 -7 -675 -5 2 -8 310 -8 684 l0 679 -110 0 -110 0 0 75 0 75 208
0 c114 0 216 -3 228 -6z m-2806 -79 c0 -8 -2 -15 -4 -15 -2 0 -6 7 -10 15 -3
8 -1 15 4 15 6 0 10 -7 10 -15z m4220 11 c0 -3 -4 -8 -10 -11 -5 -3 -10 -1
-10 4 0 6 5 11 10 11 6 0 10 -2 10 -4z m-4230 -40 c0 -3 -4 -8 -10 -11 -5 -3
-10 -1 -10 4 0 6 5 11 10 11 6 0 10 -2 10 -4z m2766 -148 c16 -26 13 -57 -7
-63 -10 -4 -23 -3 -29 0 -11 7 -14 58 -3 68 10 11 31 8 39 -5z m71 -20 c2 -16
0 -19 -6 -9 -5 7 -14 10 -20 7 -6 -4 -11 0 -11 8 0 26 36 19 37 -6z m53 -8 c0
-16 -2 -30 -4 -30 -2 0 -6 14 -8 30 -3 17 -1 30 4 30 4 0 8 -13 8 -30z m-959
-2 c1 -7 1 -15 1 -18 0 -3 16 -4 37 -2 37 4 37 4 36 -35 0 -34 -3 -38 -27 -41
-16 -2 -28 1 -28 7 0 6 9 11 20 11 11 0 20 4 20 9 0 5 -11 8 -25 7 -14 0 -25
-6 -25 -13 0 -6 -10 -19 -22 -27 -12 -9 -18 -16 -13 -16 6 0 3 -5 -7 -10 -19
-11 -51 -3 -42 11 3 5 -8 8 -25 7 -17 -1 -31 -6 -31 -10 0 -4 -4 -8 -10 -8
-14 0 -32 78 -25 111 l7 29 79 0 c56 0 79 -4 80 -12z m1927 -50 l3 -46 -38 -6
c-77 -14 -373 -38 -388 -32 -11 4 -15 20 -15 55 0 44 3 51 23 56 47 11 226 23
317 21 l95 -2 3 -46z m-5263 22 c-3 -5 -10 -10 -16 -10 -5 0 -9 5 -9 10 0 6 7
10 16 10 8 0 12 -4 9 -10z m3491 -5 c6 -14 8 -14 18 1 7 9 22 14 37 12 20 -2
24 -8 24 -38 0 -30 -4 -36 -24 -38 -15 -2 -30 3 -37 12 -11 15 -12 15 -18 1
-10 -26 -60 -15 -64 13 -2 13 -1 30 2 38 7 19 55 18 62 -1z m747 -2 c-7 -2
-19 -2 -25 0 -7 3 -2 5 12 5 14 0 19 -2 13 -5z m563 -60 c-10 -10 -19 5 -10
18 6 11 8 11 12 0 2 -7 1 -15 -2 -18z m-1389 -866 c-1 -150 -2 -24 -2 278 0
303 1 425 2 272 2 -153 2 -401 0 -550z m1711 744 c7 -69 -1 -79 -70 -85 -35
-3 -99 -7 -143 -8 l-80 -3 -3 49 c-2 27 1 53 7 59 11 11 163 25 241 23 44 -1
45 -2 48 -35z m-1185 19 c4 0 7 -34 7 -76 l0 -75 -112 2 -113 2 -5 -444 -5
-444 -5 444 -5 443 -110 2 -110 1 -3 48 c-7 98 -10 96 141 99 104 2 262 2 320
-2z m867 -60 c0 -5 -4 -10 -10 -10 -5 0 -10 5 -10 10 0 6 5 10 10 10 6 0 10
-4 10 -10z m468 -146 c2 -33 -2 -55 -10 -61 -8 -7 -102 -14 -225 -18 l-213 -8
0 57 c0 49 2 56 23 61 26 6 335 23 387 21 35 -1 35 -1 38 -52z m-2918 7 c0
-21 -26 -36 -36 -20 -9 15 3 39 21 39 8 0 15 -9 15 -19z m990 -55 l0 -75 -225
-1 -225 -1 0 76 0 75 225 0 225 0 0 -74z m1454 13 c-3 -5 -10 -7 -15 -3 -5 3
-7 10 -3 15 3 5 10 7 15 3 5 -3 7 -10 3 -15z m-2595 -23 c8 -10 8 -16 -2 -25
-16 -13 -27 -5 -27 21 0 21 13 23 29 4z m70 -22 c-9 -11 -15 -12 -25 -3 -11 9
-12 15 -3 25 9 11 15 12 25 3 11 -9 12 -15 3 -25z m78 21 c7 -20 -2 -29 -21
-22 -9 4 -13 13 -10 22 8 19 23 19 31 0z m-222 -76 c10 -15 -1 -23 -20 -15 -9
3 -13 10 -10 16 8 13 22 13 30 -1z m75 -4 c0 -8 -7 -15 -15 -15 -8 0 -15 7
-15 15 0 8 7 15 15 15 8 0 15 -7 15 -15z m70 0 c0 -8 -7 -15 -15 -15 -8 0 -15
7 -15 15 0 8 7 15 15 15 8 0 15 -7 15 -15z m78 -3 c2 -7 -3 -12 -12 -12 -9 0
-16 7 -16 16 0 17 22 14 28 -4z m3124 8 l38 0 0 -44 c0 -50 -8 -56 -75 -56
-24 0 -54 -4 -67 -9 -13 -4 -141 -11 -285 -15 l-263 -7 0 56 c0 36 5 57 13 60
22 9 418 23 511 19 49 -2 106 -4 128 -4z m-2352 -114 c0 -66 -4 -117 -10 -121
-6 -4 -10 37 -10 114 0 74 4 121 10 121 6 0 10 -45 10 -114z m-934 27 c-10
-10 -19 5 -10 18 6 11 8 11 12 0 2 -7 1 -15 -2 -18z m164 6 c0 -5 -7 -9 -15
-9 -15 0 -20 12 -9 23 8 8 24 -1 24 -14z m2445 11 c3 -5 -1 -10 -10 -10 -9 0
-13 5 -10 10 3 6 8 10 10 10 2 0 7 -4 10 -10z m-2675 -81 c0 -5 -7 -9 -15 -9
-9 0 -12 6 -9 15 6 15 24 11 24 -6z m80 0 c0 -5 -7 -9 -15 -9 -15 0 -20 12 -9
23 8 8 24 -1 24 -14z m-150 1 c0 -5 -7 -10 -16 -10 -8 0 -12 5 -9 10 3 6 10
10 16 10 5 0 9 -4 9 -10z m220 0 c0 -5 -7 -10 -16 -10 -8 0 -12 5 -9 10 3 6
10 10 16 10 5 0 9 -4 9 -10z m-1797 -27 c-7 -2 -19 -2 -25 0 -7 3 -2 5 12 5
14 0 19 -2 13 -5z m4772 -63 l0 -55 -60 -6 c-33 -4 -128 -7 -211 -8 -151 -1
-152 -1 -156 22 -2 13 -3 39 0 60 l4 36 82 4 c44 2 140 3 211 3 l130 -1 0 -55z
m-3055 20 c0 -5 -4 -10 -10 -10 -5 0 -10 5 -10 10 0 6 5 10 10 10 6 0 10 -4
10 -10z m150 0 c0 -5 -4 -10 -10 -10 -5 0 -10 5 -10 10 0 6 5 10 10 10 6 0 10
-4 10 -10z m2450 -30 c0 -5 -4 -10 -10 -10 -5 0 -10 5 -10 10 0 6 5 10 10 10
6 0 10 -4 10 -10z m-5225 -144 c2 -62 -1 -72 -26 -100 l-27 -31 -21 25 c-32
39 -37 86 -13 135 18 37 24 42 53 41 l33 -1 1 -69z m6250 14 c2 -8 1 -31 -3
-50 l-8 -35 -119 -8 c-66 -5 -285 -10 -486 -13 -414 -5 -396 -8 -385 70 6 35
12 46 29 50 12 2 235 4 495 3 410 -2 473 -4 477 -17z m-1025 -50 c0 -5 -4 -10
-10 -10 -5 0 -10 5 -10 10 0 6 5 10 10 10 6 0 10 -4 10 -10z m-2605 -80 c3 -5
1 -10 -4 -10 -6 0 -11 5 -11 10 0 6 2 10 4 10 3 0 8 -4 11 -10z m927 -150 c3
-17 1 -33 -4 -36 -4 -3 -8 11 -8 30 0 44 6 47 12 6z m1020 -377 c10 -9 18 -22
18 -30 0 -11 -5 -11 -29 1 -34 18 -49 46 -24 46 9 0 25 -7 35 -17z m-2846 -19
c22 -9 33 -19 27 -21 -25 -9 -13 -21 26 -28 55 -9 93 -54 99 -116 4 -47 3 -48
-29 -62 -19 -7 -45 -11 -59 -8 l-25 6 28 3 c15 2 27 7 27 11 0 5 9 11 20 14
28 7 25 26 -5 37 -27 10 -63 1 -86 -23 -30 -29 -54 -28 -115 4 -73 39 -163
102 -180 128 -26 36 -8 51 65 52 36 1 80 5 96 9 48 12 70 11 111 -6z m2884
-65 c0 -5 -4 -9 -10 -9 -5 0 -10 7 -10 16 0 8 5 12 10 9 6 -3 10 -10 10 -16z
m-140 -9 c27 -14 40 -27 40 -41 0 -13 6 -19 18 -17 14 3 16 -4 14 -41 -4 -47
-45 -121 -68 -121 -8 0 -14 -5 -14 -12 0 -6 -7 -4 -18 6 -18 15 -20 15 -43 -2
-41 -33 -104 -47 -127 -29 -14 11 -52 -4 -88 -35 -12 -11 -37 -21 -56 -24 -28
-5 -40 -1 -64 20 l-29 25 28 1 c17 0 27 5 27 15 0 17 -25 20 -35 5 -7 -12 -25
-4 -25 12 0 7 17 9 51 5 41 -5 59 -2 95 16 24 12 44 29 44 38 0 9 18 30 39 47
22 18 56 59 77 92 42 69 65 75 134 40z m184 -56 c10 -15 16 -35 13 -47 -3 -12
-8 -33 -11 -46 -7 -31 -14 -37 -53 -44 -38 -7 -39 -4 -18 62 8 25 17 58 20 74
7 34 24 34 49 1z m-2494 -24 c0 -5 -4 -10 -10 -10 -5 0 -10 5 -10 10 0 6 5 10
10 10 6 0 10 -4 10 -10z m2540 -10 c0 -5 -2 -10 -4 -10 -3 0 -8 5 -11 10 -3 6
-1 10 4 10 6 0 11 -4 11 -10z m508 -5 c19 -14 24 -14 51 0 41 21 51 19 51 -9
0 -31 20 -86 31 -86 5 0 9 14 9 31 0 17 4 28 10 24 16 -10 12 -72 -5 -79 -8
-3 -15 -17 -15 -31 0 -23 -3 -25 -49 -25 l-48 0 -6 -55 c-5 -46 -11 -61 -41
-90 -20 -19 -36 -39 -36 -44 0 -19 -35 -21 -59 -3 -18 13 -37 17 -63 14 -41
-5 -49 9 -28 49 9 16 7 19 -13 19 -12 0 -29 -6 -35 -12 -10 -10 -15 -10 -21 1
-14 23 -34 1 -27 -30 3 -15 1 -31 -4 -34 -9 -6 -14 8 -11 28 1 4 -7 11 -16 14
-26 10 -53 36 -53 50 0 7 -5 13 -10 13 -6 0 -16 5 -23 10 -7 6 -21 17 -32 25
-18 13 -18 17 -5 28 18 15 27 97 10 97 -6 0 -8 5 -5 11 4 6 17 -1 31 -18 23
-26 26 -27 38 -10 7 9 18 17 25 17 6 0 17 12 23 26 9 19 17 24 32 19 44 -14
76 -17 76 -7 0 19 37 23 78 9 35 -12 39 -12 35 2 -6 22 33 61 60 61 12 0 32
-7 45 -15z m-318 -20 c0 -8 -7 -15 -15 -15 -8 0 -15 7 -15 15 0 8 7 15 15 15
8 0 15 -7 15 -15z m203 8 c-7 -2 -19 -2 -25 0 -7 3 -2 5 12 5 14 0 19 -2 13
-5z m-3283 -103 c8 -5 12 -12 9 -15 -8 -8 -39 5 -39 16 0 11 11 11 30 -1z
m-763 -106 c-3 -3 -12 -4 -19 -1 -8 3 -5 6 6 6 11 1 17 -2 13 -5z m133 -28 c0
-9 9 -12 28 -9 20 4 23 2 12 -6 -12 -8 -10 -12 10 -19 14 -5 29 -7 34 -4 5 3
6 0 2 -6 -5 -8 2 -12 18 -12 14 0 26 -4 26 -9 0 -5 12 -12 26 -15 15 -4 24 -9
21 -12 -4 -5 -81 22 -214 74 -54 21 -55 32 -3 32 27 0 40 -4 40 -14z m1165
-74 l20 -14 -20 7 c-11 4 -28 10 -37 12 -10 3 -18 9 -18 14 0 10 28 1 55 -19z
m-848 -28 c-3 -3 -12 -4 -19 -1 -8 3 -5 6 6 6 11 1 17 -2 13 -5z m38 -34 c53
-24 34 -24 -35 0 -34 12 -46 19 -30 19 14 0 43 -9 65 -19z m920 -9 c3 -5 0
-13 -6 -17 -12 -7 -39 20 -39 38 0 10 36 -7 45 -21z m2435 -11 c0 -11 -48 -25
-57 -16 -4 3 1 6 10 6 10 0 17 5 17 10 0 6 7 10 15 10 8 0 15 -4 15 -10z
m-3265 -20 c7 -11 -9 -11 -45 0 -24 8 -24 8 7 9 17 1 35 -3 38 -9z m141 -43
c11 -11 -19 -8 -36 3 -12 8 -10 9 7 7 12 -2 26 -6 29 -10z m989 -302 l20 -16
-20 10 c-11 5 -29 17 -40 26 l-20 16 20 -10 c11 -5 29 -17 40 -26z m10 25 c3
-6 -1 -7 -9 -4 -18 7 -21 14 -7 14 6 0 13 -4 16 -10z m51 -55 c31 -29 20 -34
-13 -6 -21 18 -29 31 -19 31 3 0 17 -11 32 -25z m44 5 c0 -5 -4 -10 -10 -10
-5 0 -10 5 -10 10 0 6 5 10 10 10 6 0 10 -4 10 -10z m5 -40 c3 -5 1 -10 -4
-10 -6 0 -11 5 -11 10 0 6 2 10 4 10 3 0 8 -4 11 -10z m329 -621 c-8 -14 -34
-11 -34 4 0 8 3 17 7 20 9 9 34 -13 27 -24z"/>
<path d="M9611 5814 c0 -11 3 -14 6 -6 3 7 2 16 -1 19 -3 4 -6 -2 -5 -13z"/>
<path d="M10611 3787 c-18 -18 -13 -65 8 -72 22 -7 51 3 51 17 0 6 8 1 18 -10
13 -16 22 -18 40 -11 19 7 23 15 20 40 -4 44 -30 59 -58 34 -13 -12 -24 -15
-28 -9 -11 17 -39 23 -51 11z m39 -37 c0 -11 -7 -20 -15 -20 -8 0 -15 9 -15
20 0 11 7 20 15 20 8 0 15 -9 15 -20z m73 14 c8 -8 -3 -34 -14 -34 -5 0 -9 9
-9 20 0 19 11 26 23 14z"/>
<path d="M10365 3780 c3 -5 13 -10 21 -10 13 0 13 -3 0 -22 -18 -25 -20 -38
-7 -38 9 0 51 61 51 74 0 3 -16 6 -36 6 -21 0 -33 -4 -29 -10z"/>
<path d="M10441 3768 c-11 -29 4 -58 28 -58 27 0 43 24 35 54 -8 34 -51 36
-63 4z m46 -22 c-4 -9 -11 -16 -17 -16 -11 0 -14 33 -3 44 11 10 26 -11 20
-28z"/>
<path d="M10527 3784 c-10 -10 -9 -46 2 -63 5 -8 16 -11 30 -6 30 9 26 69 -4
73 -12 2 -24 0 -28 -4z m41 -32 c2 -15 -2 -22 -12 -22 -11 0 -16 9 -16 26 0
31 23 28 28 -4z"/>
<path d="M10680 3550 c0 -5 5 -10 10 -10 6 0 10 5 10 10 0 6 -4 10 -10 10 -5
0 -10 -4 -10 -10z"/>
<path d="M9982 3468 c2 -13 8 -23 13 -23 6 0 11 10 13 23 2 15 -2 22 -13 22
-11 0 -15 -7 -13 -22z"/>
<path d="M10064 3477 c-9 -24 6 -44 18 -22 7 11 6 21 -1 28 -7 7 -12 6 -17 -6z"/>
<path d="M10064 3295 c-9 -23 3 -46 21 -39 8 3 15 1 15 -5 0 -6 -9 -11 -20
-11 -11 0 -20 -4 -20 -10 0 -5 13 -10 29 -10 34 0 46 22 29 53 -10 20 -10 21
5 8 10 -7 17 -24 17 -37 0 -15 6 -24 16 -24 12 0 14 9 12 41 l-3 42 -48 4
c-36 3 -49 0 -53 -12z"/>
<path d="M10184 3286 c-10 -43 -1 -61 31 -61 27 0 30 3 27 30 -4 46 -10 55
-31 55 -13 0 -23 -9 -27 -24z m36 -6 c0 -5 -2 -10 -4 -10 -3 0 -8 5 -11 10 -3
6 -1 10 4 10 6 0 11 -4 11 -10z"/>
<path d="M10261 3296 c-8 -10 -10 -27 -6 -46 6 -26 11 -31 33 -28 24 3 27 7
27 43 0 33 -4 41 -21 43 -11 2 -26 -4 -33 -12z m39 -36 c0 -11 -4 -20 -9 -20
-14 0 -23 18 -16 30 10 17 25 11 25 -10z"/>
<path d="M10339 3290 c-7 -55 0 -71 29 -68 23 3 27 8 30 41 3 35 2 37 -27 37
-17 0 -32 -4 -32 -10z m47 -21 c10 -17 -13 -36 -27 -22 -12 12 -4 33 11 33 5
0 12 -5 16 -11z"/>
<path d="M9694 3122 c-34 -23 -19 -86 19 -80 26 4 36 50 16 74 -13 16 -19 17
-35 6z m28 -54 c-16 -16 -35 3 -26 26 6 16 8 16 22 2 13 -12 14 -18 4 -28z"/>
<path d="M9766 3114 c-19 -18 -20 -28 -6 -55 13 -23 46 -25 54 -3 18 47 -17
90 -48 58z m37 -17 c3 -8 1 -20 -4 -28 -11 -19 -34 3 -26 25 8 20 23 21 30 3z"/>
<path d="M9485 3110 c3 -5 12 -7 20 -3 22 8 18 -10 -5 -30 -28 -24 -25 -37 10
-37 17 0 30 5 30 10 0 6 -7 10 -17 10 -15 0 -15 2 1 19 22 24 13 41 -20 41
-14 0 -23 -4 -19 -10z"/>
<path d="M9554 3106 c-11 -28 1 -61 22 -64 28 -4 48 22 40 53 -5 18 -13 25
-32 25 -13 0 -27 -6 -30 -14z m41 -21 c0 -10 -6 -20 -12 -22 -8 -3 -13 5 -13
22 0 17 5 25 13 23 6 -3 12 -13 12 -23z"/>
<path d="M9625 3111 c-3 -5 -1 -12 5 -16 5 -3 10 -17 10 -31 0 -13 5 -24 10
-24 6 0 10 18 10 40 0 28 -4 40 -14 40 -8 0 -17 -4 -21 -9z"/>
<path d="M5848 5433 c7 -3 16 -2 19 1 4 3 -2 6 -13 5 -11 0 -14 -3 -6 -6z"/>
<path d="M8207 4240 c-14 -11 -33 -21 -44 -21 -10 -1 11 -5 47 -9 49 -6 67 -4
78 6 11 12 10 14 -7 14 -11 0 -26 7 -34 15 -13 13 -18 12 -40 -5z"/>
<path d="M9391 4124 c0 -11 3 -14 6 -6 3 7 2 16 -1 19 -3 4 -6 -2 -5 -13z"/>
<path d="M9655 3920 c-3 -5 -1 -10 4 -10 6 0 11 5 11 10 0 6 -2 10 -4 10 -3 0
-8 -4 -11 -10z"/>
<path d="M5431 3892 c-8 -3 -27 -17 -42 -33 -15 -15 -44 -36 -66 -47 -46 -24
-68 -60 -65 -110 0 -20 1 -80 1 -133 -1 -99 10 -128 32 -87 7 13 15 25 18 28
3 3 19 25 36 49 36 54 93 111 109 111 17 0 86 77 87 98 1 9 2 41 3 69 1 43 -2
52 -14 48 -8 -2 -31 -1 -50 4 -19 4 -41 6 -49 3z"/>
<path d="M6315 3883 c5 -17 -1 -29 -21 -48 -15 -14 -31 -25 -35 -25 -5 0 -9
-14 -9 -32 0 -17 -3 -28 -7 -25 -7 8 -33 -11 -33 -24 0 -25 71 18 120 73 14
15 36 28 48 28 12 0 22 6 22 13 0 17 -44 42 -58 33 -6 -4 -16 2 -22 11 -10 16
-10 15 -5 -4z"/>
<path d="M6201 3809 c-23 -9 -23 -11 -9 -26 20 -20 48 -10 48 17 0 22 -4 23
-39 9z"/>
<path d="M5627 3725 c-13 -18 -16 -35 -12 -55 6 -26 -7 -66 -24 -80 -10 -7
-50 -114 -71 -185 -21 -76 -28 -93 -46 -128 -23 -45 -18 -111 10 -141 27 -30
41 -34 32 -10 -4 11 9 35 39 69 28 33 43 59 39 69 -3 8 1 28 9 43 17 33 41
136 57 248 7 44 18 93 26 109 11 23 11 34 1 55 -16 34 -38 36 -60 6z"/>
<path d="M7400 2811 c-16 -24 -17 -29 -5 -25 17 7 40 43 32 50 -3 3 -15 -9
-27 -25z"/>
<path d="M7350 2789 c0 -5 5 -7 10 -4 6 3 10 8 10 11 0 2 -4 4 -10 4 -5 0 -10
-5 -10 -11z"/>
</g>
</svg>
